.
..............................Site Info...........................

 -   http://www.scenetime.com  *_*   

SceneTime is going to Close sign up on march/1, hurry up! get in before the doors are closed.

     We care to share . Join us on  http://www.scenetime.com 

    Be the first to get new release at  http://www.scenetime.com

        Seed back for speed


...................................NFO:.................................................[IMG]http://lookpic.com/O/i2/1177/mTUESgnv.jpeg[/IMG]
Hugo(II)(2011)(DVDRip)x264-AC3-warhawk

Source                                   : Hugo.2011.NTSC.DVDR-DVDR

Encoder                                  : warhawk

General
Unique ID                                : 202149127774394914297473739327385117204 (0x9814817ECFDC3EC89D3816D189302214)
Complete name                            : Hugo(II)(2011)(DVDRip)x264-AC3-warhawk.mkv
Format                                   : Matroska
Format version                           : Version 2
File size                                : 1 021 MiB
Duration                                 : 2h 6mn
Overall bit rate                         : 1 130 Kbps
Encoded date                             : UTC 2012-02-21 03:43:58
Writing application                      : mkvmerge v5.3.0 ('I could have danced') built on Feb  9 2012 10:38:07
Writing library                          : libebml v1.2.3 + libmatroska v1.3.0

Video
ID                                       : 1
Format                                   : AVC
Format/Info                              : Advanced Video Codec
Format profile                           : High@L3.1
Format settings, CABAC                   : Yes
Format settings, ReFrames                : 8 frames
Muxing mode                              : Header stripping
Codec ID                                 : V_MPEG4/ISO/AVC
Duration                                 : 2h 6mn
Bit rate                                 : 681 Kbps
Width                                    : 720 pixels
Height                                   : 400 pixels
Display aspect ratio                     : 16:9
Frame rate                               : 23.976 fps
Color space                              : YUV
Chroma subsampling                       : 4:2:0
Bit depth                                : 8 bits
Scan type                                : Progressive
Bits/(Pixel*Frame)                       : 0.099
Stream size                              : 596 MiB (58%)
Writing library                          : x264 core 120 r2164 da19765
Language                                 : English
Default                                  : Yes
Forced                                   : No

Audio
ID                                       : 2
Format                                   : AC-3
Format/Info                              : Audio Coding 3
Mode extension                           : CM (complete main)
Muxing mode                              : Header stripping
Codec ID                                 : A_AC3
Duration                                 : 2h 6mn
Bit rate mode                            : Constant
Bit rate                                 : 448 Kbps
Channel(s)                               : 6 channels
Channel positions                        : Front: L C R, Side: L R, LFE
Sampling rate                            : 48.0 KHz
Bit depth                                : 16 bits
Compression mode                         : Lossy
Delay relative to video                  : 219ms
Stream size                              : 405 MiB (40%)
Default                                  : Yes
Forced                                   : No
 
http://www.imdb.com/title/tt0970179/

Set in 1930s Paris, an orphan who lives in the walls of a train station is wrapped up in a mystery involving his late father and an automaton.

Asa Butterfield, Chlo Grace Moretz and Christopher Lee

[IMG]http://lookpic.com/O/i2/1443/oZ9tgeBx.png[/IMG]
[IMG]http://lookpic.com/O/i2/1523/Bk35akvV.png[/IMG]
[IMG]http://lookpic.com/O/i2/1659/GQjNAdeb.png[/IMG]
[IMG]http://lookpic.com/O/i2/1550/tE7IA04T.png[/IMG]
[IMG]http://lookpic.com/O/i2/1885/wFgkwuoF.png[/IMG]
[IMG]http://lookpic.com/O/i2/695/LpvIcP2s.png[/IMG]